<svg width="112" height="112" viewBox="0 0 112 112" fill="none" xmlns="http://www.w3.org/2000/svg">
<circle cx="56" cy="56" r="56" fill="#F8F8F8"/>
<path d="M84.9806 73.0001C89.3988 73.0002 93.0962 76.6311 92.0837 80.9317C88.5634 95.8843 75.3108 107 59.5 107C43.6892 107 30.4367 95.8843 26.9163 80.9318C25.9038 76.6311 29.5968 73.0002 34.015 73.0002C42.1865 73.0001 47.7379 73.0001 51.5093 73.0001C55.927 73.0001 63.0667 73 67.4844 73C71.2577 73 76.8105 73.0001 84.9806 73.0001Z" fill="#FFCD29"/>
<path d="M93 73.0002C93 91.7789 78.0015 107 59.5 107C40.9985 107 33 95.2787 33 76.5C66.5 76.4998 59.5 73 59.5 73C59.5 73 58.5501 72.9999 93 73.0002Z" fill="#FFCD29"/>
<path d="M80 18H85C89.4183 18 93 21.5817 93 26V73H80V18Z" fill="#FFCD29"/>
<path d="M82.9806 71.0001C87.3988 71.0002 91.0962 74.6311 90.0837 78.9317C86.5634 93.8843 73.3108 105 57.5 105C41.6892 105 28.4367 93.8843 24.9163 78.9318C23.9038 74.6311 27.5968 71.0002 32.015 71.0002C40.1865 71.0001 45.7379 71.0001 49.5093 71.0001C53.927 71.0001 61.0667 71 65.4844 71C69.2577 71 74.8105 71.0001 82.9806 71.0001Z" fill="black"/>
<path d="M91 71.0002C91 89.7789 76.0015 105 57.5 105C38.9985 105 31 93.2787 31 74.5C64.5 74.4998 57.5 71 57.5 71C57.5 71 56.5501 70.9999 91 71.0002Z" fill="black"/>
<path d="M78 70.0001C78 81.5987 68.598 92.0002 57 92.0002C45.402 92.0002 35.5 81.5988 35.5 70.0002C56.5 70.0001 57 70.0002 57 70.0002C57 70.0002 56.4045 69.9999 78 70.0001Z" fill="#F8F8F8"/>
<path d="M31.5 31C27.9101 31 25 28.0899 25 24.5V24.5C25 20.9101 27.9101 18 31.5 18L80 18V31L31.5 31Z" fill="#FF9829"/>
<path d="M46 31H59V79.5C59 83.0899 56.0899 86 52.5 86V86C48.9101 86 46 83.0899 46 79.5V31Z" fill="#FF9829"/>
<path d="M78 16H83C87.4183 16 91 19.5817 91 24V71H78V16Z" fill="black"/>
<path d="M44 29H57V77.5C57 81.0899 54.0899 84 50.5 84V84C46.9101 84 44 81.0899 44 77.5V29Z" fill="black"/>
<path d="M30.5 29C26.9101 29 24 26.0899 24 22.5V22.5C24 18.9101 26.9101 16 30.5 16L79 16V29L30.5 29Z" fill="black"/>
</svg>
